<mxfile host="Electron" modified="2024-04-17T17:18:21.496Z" agent="Mozilla/5.0 (Macintosh; Intel Mac OS X 10_15_7) AppleWebKit/537.36 (KHTML, like Gecko) draw.io/24.2.5 Chrome/120.0.6099.109 Electron/28.1.0 Safari/537.36" etag="tTknsn7lvs_8rRNnixtH" version="24.2.5" type="device">
  <diagram name="Pagina-1" id="U2I8ugdrSPOFrGwT4onF">
    <mxGraphModel dx="1230" dy="933" grid="1" gridSize="10" guides="1" tooltips="1" connect="1" arrows="1" fold="1" page="1" pageScale="1" pageWidth="827" pageHeight="1169" math="0" shadow="0">
      <root>
        <mxCell id="0" />
        <mxCell id="1" parent="0" />
        <mxCell id="3L7dmIYsDGU0wwx0ObbY-4" value="" style="rounded=0;whiteSpace=wrap;html=1;fillColor=#0050ef;strokeColor=#001DBC;fontColor=#ffffff;" vertex="1" parent="1">
          <mxGeometry x="440" y="50" width="760" height="640" as="geometry" />
        </mxCell>
        <mxCell id="3L7dmIYsDGU0wwx0ObbY-15" value="" style="ellipse;whiteSpace=wrap;html=1;aspect=fixed;fillColor=#f5f5f5;fontColor=#333333;strokeColor=#666666;" vertex="1" parent="1">
          <mxGeometry x="435" y="135" width="10" height="10" as="geometry" />
        </mxCell>
        <mxCell id="3L7dmIYsDGU0wwx0ObbY-1" value="FRONT END" style="rounded=0;whiteSpace=wrap;html=1;" vertex="1" parent="1">
          <mxGeometry x="90" y="120" width="120" height="60" as="geometry" />
        </mxCell>
        <mxCell id="3L7dmIYsDGU0wwx0ObbY-22" style="edgeStyle=orthogonalEdgeStyle;rounded=0;orthogonalLoop=1;jettySize=auto;html=1;exitX=1;exitY=0.5;exitDx=0;exitDy=0;entryX=0;entryY=0.5;entryDx=0;entryDy=0;" edge="1" parent="1" source="3L7dmIYsDGU0wwx0ObbY-2" target="3L7dmIYsDGU0wwx0ObbY-5">
          <mxGeometry relative="1" as="geometry" />
        </mxCell>
        <mxCell id="3L7dmIYsDGU0wwx0ObbY-23" style="edgeStyle=orthogonalEdgeStyle;rounded=0;orthogonalLoop=1;jettySize=auto;html=1;exitX=1;exitY=0.5;exitDx=0;exitDy=0;entryX=0;entryY=0.5;entryDx=0;entryDy=0;" edge="1" parent="1" source="3L7dmIYsDGU0wwx0ObbY-2" target="3L7dmIYsDGU0wwx0ObbY-6">
          <mxGeometry relative="1" as="geometry" />
        </mxCell>
        <mxCell id="3L7dmIYsDGU0wwx0ObbY-24" style="edgeStyle=orthogonalEdgeStyle;rounded=0;orthogonalLoop=1;jettySize=auto;html=1;exitX=1;exitY=0.5;exitDx=0;exitDy=0;entryX=0;entryY=0.5;entryDx=0;entryDy=0;" edge="1" parent="1" source="3L7dmIYsDGU0wwx0ObbY-2" target="3L7dmIYsDGU0wwx0ObbY-7">
          <mxGeometry relative="1" as="geometry" />
        </mxCell>
        <mxCell id="3L7dmIYsDGU0wwx0ObbY-2" value="LOAD BALANCER" style="rounded=0;whiteSpace=wrap;html=1;" vertex="1" parent="1">
          <mxGeometry x="445" y="110" width="120" height="60" as="geometry" />
        </mxCell>
        <mxCell id="3L7dmIYsDGU0wwx0ObbY-3" value="" style="ellipse;shape=cloud;whiteSpace=wrap;html=1;" vertex="1" parent="1">
          <mxGeometry x="280" y="110" width="120" height="80" as="geometry" />
        </mxCell>
        <mxCell id="3L7dmIYsDGU0wwx0ObbY-26" style="edgeStyle=orthogonalEdgeStyle;rounded=0;orthogonalLoop=1;jettySize=auto;html=1;exitX=1;exitY=0.5;exitDx=0;exitDy=0;entryX=0;entryY=0.5;entryDx=0;entryDy=0;" edge="1" parent="1" source="3L7dmIYsDGU0wwx0ObbY-5" target="3L7dmIYsDGU0wwx0ObbY-10">
          <mxGeometry relative="1" as="geometry" />
        </mxCell>
        <mxCell id="3L7dmIYsDGU0wwx0ObbY-5" value="WEB SERVER" style="rounded=0;whiteSpace=wrap;html=1;" vertex="1" parent="1">
          <mxGeometry x="690" y="90" width="120" height="60" as="geometry" />
        </mxCell>
        <mxCell id="3L7dmIYsDGU0wwx0ObbY-27" style="edgeStyle=orthogonalEdgeStyle;rounded=0;orthogonalLoop=1;jettySize=auto;html=1;exitX=1;exitY=0.5;exitDx=0;exitDy=0;entryX=0;entryY=0.5;entryDx=0;entryDy=0;" edge="1" parent="1" source="3L7dmIYsDGU0wwx0ObbY-6" target="3L7dmIYsDGU0wwx0ObbY-10">
          <mxGeometry relative="1" as="geometry" />
        </mxCell>
        <mxCell id="3L7dmIYsDGU0wwx0ObbY-28" style="edgeStyle=orthogonalEdgeStyle;rounded=0;orthogonalLoop=1;jettySize=auto;html=1;exitX=1;exitY=0.5;exitDx=0;exitDy=0;entryX=0;entryY=0.5;entryDx=0;entryDy=0;" edge="1" parent="1" source="3L7dmIYsDGU0wwx0ObbY-6" target="3L7dmIYsDGU0wwx0ObbY-11">
          <mxGeometry relative="1" as="geometry" />
        </mxCell>
        <mxCell id="3L7dmIYsDGU0wwx0ObbY-29" style="edgeStyle=orthogonalEdgeStyle;rounded=0;orthogonalLoop=1;jettySize=auto;html=1;exitX=1;exitY=0.5;exitDx=0;exitDy=0;entryX=0;entryY=0.5;entryDx=0;entryDy=0;" edge="1" parent="1" source="3L7dmIYsDGU0wwx0ObbY-6" target="3L7dmIYsDGU0wwx0ObbY-12">
          <mxGeometry relative="1" as="geometry" />
        </mxCell>
        <mxCell id="3L7dmIYsDGU0wwx0ObbY-6" value="WEB SERVER" style="rounded=0;whiteSpace=wrap;html=1;" vertex="1" parent="1">
          <mxGeometry x="690" y="200" width="120" height="60" as="geometry" />
        </mxCell>
        <mxCell id="3L7dmIYsDGU0wwx0ObbY-30" style="edgeStyle=orthogonalEdgeStyle;rounded=0;orthogonalLoop=1;jettySize=auto;html=1;exitX=1;exitY=0.5;exitDx=0;exitDy=0;entryX=0.5;entryY=0;entryDx=0;entryDy=0;" edge="1" parent="1" source="3L7dmIYsDGU0wwx0ObbY-7" target="3L7dmIYsDGU0wwx0ObbY-13">
          <mxGeometry relative="1" as="geometry" />
        </mxCell>
        <mxCell id="3L7dmIYsDGU0wwx0ObbY-7" value="WEB SERVER" style="rounded=0;whiteSpace=wrap;html=1;" vertex="1" parent="1">
          <mxGeometry x="690" y="310" width="120" height="60" as="geometry" />
        </mxCell>
        <mxCell id="3L7dmIYsDGU0wwx0ObbY-9" value="DB" style="shape=cylinder3;whiteSpace=wrap;html=1;boundedLbl=1;backgroundOutline=1;size=15;" vertex="1" parent="1">
          <mxGeometry x="1020" y="80" width="60" height="80" as="geometry" />
        </mxCell>
        <mxCell id="3L7dmIYsDGU0wwx0ObbY-35" style="edgeStyle=orthogonalEdgeStyle;rounded=0;orthogonalLoop=1;jettySize=auto;html=1;exitX=1;exitY=0.5;exitDx=0;exitDy=0;endArrow=none;endFill=0;" edge="1" parent="1" source="3L7dmIYsDGU0wwx0ObbY-10">
          <mxGeometry relative="1" as="geometry">
            <mxPoint x="1139.9999999999998" y="270.13043478260875" as="targetPoint" />
          </mxGeometry>
        </mxCell>
        <mxCell id="3L7dmIYsDGU0wwx0ObbY-10" value="VENDITE" style="rounded=0;whiteSpace=wrap;html=1;" vertex="1" parent="1">
          <mxGeometry x="970" y="240" width="120" height="60" as="geometry" />
        </mxCell>
        <mxCell id="3L7dmIYsDGU0wwx0ObbY-34" style="edgeStyle=orthogonalEdgeStyle;rounded=0;orthogonalLoop=1;jettySize=auto;html=1;exitX=1;exitY=0.5;exitDx=0;exitDy=0;endArrow=none;endFill=0;" edge="1" parent="1" source="3L7dmIYsDGU0wwx0ObbY-11">
          <mxGeometry relative="1" as="geometry">
            <mxPoint x="1139.9999999999998" y="390.13043478260875" as="targetPoint" />
          </mxGeometry>
        </mxCell>
        <mxCell id="3L7dmIYsDGU0wwx0ObbY-11" value="UTENTI" style="rounded=0;whiteSpace=wrap;html=1;" vertex="1" parent="1">
          <mxGeometry x="950" y="360" width="120" height="60" as="geometry" />
        </mxCell>
        <mxCell id="3L7dmIYsDGU0wwx0ObbY-33" style="edgeStyle=orthogonalEdgeStyle;rounded=0;orthogonalLoop=1;jettySize=auto;html=1;exitX=1;exitY=0.5;exitDx=0;exitDy=0;endArrow=none;endFill=0;" edge="1" parent="1" source="3L7dmIYsDGU0wwx0ObbY-12">
          <mxGeometry relative="1" as="geometry">
            <mxPoint x="1139.9999999999998" y="510.13043478260875" as="targetPoint" />
          </mxGeometry>
        </mxCell>
        <mxCell id="3L7dmIYsDGU0wwx0ObbY-12" value="MAGAZZINO" style="rounded=0;whiteSpace=wrap;html=1;" vertex="1" parent="1">
          <mxGeometry x="910" y="480" width="120" height="60" as="geometry" />
        </mxCell>
        <mxCell id="3L7dmIYsDGU0wwx0ObbY-13" value="ETC.." style="rounded=0;whiteSpace=wrap;html=1;" vertex="1" parent="1">
          <mxGeometry x="800" y="590" width="120" height="60" as="geometry" />
        </mxCell>
        <mxCell id="3L7dmIYsDGU0wwx0ObbY-14" style="edgeStyle=orthogonalEdgeStyle;rounded=0;orthogonalLoop=1;jettySize=auto;html=1;exitX=0.875;exitY=0.5;exitDx=0;exitDy=0;exitPerimeter=0;endArrow=none;endFill=0;" edge="1" parent="1" source="3L7dmIYsDGU0wwx0ObbY-3">
          <mxGeometry relative="1" as="geometry">
            <mxPoint x="440" y="140" as="targetPoint" />
          </mxGeometry>
        </mxCell>
        <mxCell id="3L7dmIYsDGU0wwx0ObbY-18" value="INDIRIZZO IP:&lt;br&gt;172.32.170.140" style="ellipse;whiteSpace=wrap;html=1;" vertex="1" parent="1">
          <mxGeometry x="80" y="340" width="120" height="70" as="geometry" />
        </mxCell>
        <mxCell id="3L7dmIYsDGU0wwx0ObbY-20" style="edgeStyle=orthogonalEdgeStyle;rounded=0;orthogonalLoop=1;jettySize=auto;html=1;exitX=1;exitY=0.5;exitDx=0;exitDy=0;endArrow=classic;endFill=1;" edge="1" parent="1" source="3L7dmIYsDGU0wwx0ObbY-18">
          <mxGeometry relative="1" as="geometry">
            <mxPoint x="204.00000000000006" y="375" as="sourcePoint" />
            <mxPoint x="439.9999999999998" y="143" as="targetPoint" />
            <Array as="points">
              <mxPoint x="434" y="375" />
              <mxPoint x="434" y="170" />
              <mxPoint x="440" y="170" />
            </Array>
          </mxGeometry>
        </mxCell>
        <mxCell id="3L7dmIYsDGU0wwx0ObbY-21" style="edgeStyle=orthogonalEdgeStyle;rounded=0;orthogonalLoop=1;jettySize=auto;html=1;exitX=1;exitY=0.5;exitDx=0;exitDy=0;entryX=0.16;entryY=0.55;entryDx=0;entryDy=0;entryPerimeter=0;endArrow=none;endFill=0;" edge="1" parent="1" source="3L7dmIYsDGU0wwx0ObbY-1" target="3L7dmIYsDGU0wwx0ObbY-3">
          <mxGeometry relative="1" as="geometry" />
        </mxCell>
        <mxCell id="3L7dmIYsDGU0wwx0ObbY-32" style="edgeStyle=orthogonalEdgeStyle;rounded=0;orthogonalLoop=1;jettySize=auto;html=1;exitX=1;exitY=0.5;exitDx=0;exitDy=0;entryX=1;entryY=0.5;entryDx=0;entryDy=0;entryPerimeter=0;" edge="1" parent="1" source="3L7dmIYsDGU0wwx0ObbY-13" target="3L7dmIYsDGU0wwx0ObbY-9">
          <mxGeometry relative="1" as="geometry">
            <Array as="points">
              <mxPoint x="1140" y="620" />
              <mxPoint x="1140" y="120" />
            </Array>
          </mxGeometry>
        </mxCell>
        <mxCell id="3L7dmIYsDGU0wwx0ObbY-36" value="&lt;font style=&quot;font-size: 17px;&quot;&gt;BACKEND&lt;/font&gt;" style="text;html=1;align=center;verticalAlign=middle;whiteSpace=wrap;rounded=0;fillColor=#001236;fontColor=#ffffff;strokeColor=#001DBC;" vertex="1" parent="1">
          <mxGeometry x="440" y="10" width="140" height="40" as="geometry" />
        </mxCell>
        <mxCell id="3L7dmIYsDGU0wwx0ObbY-38" value="&lt;font color=&quot;#ffffff&quot; style=&quot;font-size: 17px;&quot;&gt;WIFI INTERNO&lt;/font&gt;&lt;div&gt;&lt;font color=&quot;#ffffff&quot; style=&quot;font-size: 17px;&quot;&gt;(qui ha senso la Gigabit)&lt;/font&gt;&lt;/div&gt;" style="text;html=1;align=center;verticalAlign=middle;whiteSpace=wrap;rounded=0;" vertex="1" parent="1">
          <mxGeometry x="540" y="500" width="200" height="40" as="geometry" />
        </mxCell>
      </root>
    </mxGraphModel>
  </diagram>
</mxfile>
